<svg width="1270" height="266" viewBox="0 0 1270 266" fill="none" xmlns="http://www.w3.org/2000/svg">
<rect width="1270" height="266" rx="20" fill="url(#paint0_linear_16462_7323)"/>
<path d="M68 59H215.33L252.462 96.1319L215.33 133.264L178.198 96.1319H105.132L68 59Z" fill="white"/>
<path d="M105.131 133.266H178.197L252.461 206.332H178.197L105.131 133.266Z" fill="white"/>
<path d="M86.5659 206.929C96.8196 206.929 105.132 198.616 105.132 188.363C105.132 178.109 96.8196 169.797 86.5659 169.797C76.3123 169.797 68 178.109 68 188.363C68 198.616 76.3123 206.929 86.5659 206.929Z" fill="white"/>
<path d="M313.945 171C311.313 171 308.889 170.342 306.673 169.026C304.526 167.711 302.795 165.979 301.479 163.832C300.163 161.616 299.506 159.193 299.506 156.561V150.848H313.217V155.938C313.217 156.284 313.321 156.596 313.529 156.873C313.806 157.08 314.118 157.184 314.464 157.184H359.235C359.582 157.184 359.859 157.08 360.066 156.873C360.343 156.596 360.482 156.284 360.482 155.938V141.706C360.482 141.36 360.343 141.083 360.066 140.875C359.859 140.668 359.582 140.564 359.235 140.564H313.945C311.313 140.564 308.889 139.906 306.673 138.59C304.526 137.274 302.795 135.543 301.479 133.396C300.163 131.18 299.506 128.722 299.506 126.021V110.647C299.506 108.015 300.163 105.626 301.479 103.479C302.795 101.263 304.526 99.4975 306.673 98.1817C308.889 96.8659 311.313 96.208 313.945 96.208H359.859C362.49 96.208 364.879 96.8659 367.026 98.1817C369.242 99.4975 371.008 101.263 372.324 103.479C373.64 105.626 374.298 108.015 374.298 110.647V116.36H360.482V111.27C360.482 110.924 360.343 110.647 360.066 110.439C359.859 110.162 359.582 110.024 359.235 110.024H314.464C314.118 110.024 313.806 110.162 313.529 110.439C313.321 110.647 313.217 110.924 313.217 111.27V125.502C313.217 125.848 313.321 126.125 313.529 126.333C313.806 126.54 314.118 126.644 314.464 126.644H359.859C362.49 126.644 364.879 127.302 367.026 128.618C369.242 129.934 371.008 131.7 372.324 133.916C373.64 136.062 374.298 138.486 374.298 141.187V156.561C374.298 159.193 373.64 161.616 372.324 163.832C371.008 165.979 369.242 167.711 367.026 169.026C364.879 170.342 362.49 171 359.859 171H313.945ZM405.01 171L381.326 110.751H395.765L410.412 146.277L425.786 110.751H439.913L456.326 146.485L469.934 110.751H484.373L461.728 171H451.132L432.954 130.799L415.606 171H405.01ZM505.261 171C502.63 171 500.206 170.342 497.99 169.026C495.843 167.711 494.112 165.979 492.796 163.832C491.55 161.686 490.926 159.296 490.926 156.665V134.02H538.502V125.605C538.502 125.259 538.364 124.982 538.087 124.774C537.879 124.497 537.602 124.359 537.256 124.359H490.926V110.751H537.775C540.407 110.751 542.796 111.409 544.943 112.725C547.159 114.04 548.89 115.772 550.137 117.918C551.452 120.065 552.11 122.454 552.11 125.086V171H505.261ZM505.781 157.392H538.502V146.277H504.534V156.145C504.534 156.492 504.638 156.803 504.846 157.08C505.123 157.288 505.435 157.392 505.781 157.392ZM560.922 171V125.086C560.922 122.454 561.58 120.065 562.896 117.918C564.212 115.772 565.943 114.04 568.09 112.725C570.306 111.409 572.695 110.751 575.257 110.751H608.706V124.359H575.777C575.43 124.359 575.119 124.497 574.842 124.774C574.634 124.982 574.53 125.259 574.53 125.605V171H560.922ZM615.402 171V110.751H690.09C692.791 110.751 695.215 111.409 697.361 112.725C699.508 114.04 701.205 115.772 702.451 117.918C703.767 120.065 704.425 122.454 704.425 125.086V171H690.921V125.605C690.921 125.259 690.783 124.982 690.506 124.774C690.229 124.497 689.917 124.359 689.571 124.359H668.068C667.722 124.359 667.41 124.497 667.133 124.774C666.925 124.982 666.821 125.259 666.821 125.605V171H653.11V125.605C653.11 125.259 652.971 124.982 652.694 124.774C652.486 124.497 652.209 124.359 651.863 124.359H630.256C629.91 124.359 629.599 124.497 629.322 124.774C629.114 124.982 629.01 125.259 629.01 125.605V171H615.402ZM730.658 171C728.027 171 725.638 170.342 723.491 169.026C721.344 167.711 719.613 165.979 718.297 163.832C716.981 161.686 716.323 159.296 716.323 156.665V154.38H729.931V156.145C729.931 156.492 730.035 156.803 730.243 157.08C730.52 157.288 730.831 157.392 731.178 157.392H762.653C762.999 157.392 763.276 157.288 763.484 157.08C763.761 156.803 763.899 156.492 763.899 156.145V148.978C763.899 148.632 763.761 148.355 763.484 148.147C763.276 147.87 762.999 147.731 762.653 147.731H730.658C728.027 147.731 725.638 147.073 723.491 145.758C721.344 144.442 719.613 142.711 718.297 140.564C716.981 138.417 716.323 136.028 716.323 133.396V125.086C716.323 122.454 716.981 120.065 718.297 117.918C719.613 115.772 721.344 114.04 723.491 112.725C725.638 111.409 728.027 110.751 730.658 110.751H763.172C765.873 110.751 768.297 111.409 770.444 112.725C772.59 114.04 774.322 115.772 775.637 117.918C776.953 120.065 777.611 122.454 777.611 125.086V127.371H763.899V125.605C763.899 125.259 763.761 124.982 763.484 124.774C763.276 124.497 762.999 124.359 762.653 124.359H731.178C730.831 124.359 730.52 124.497 730.243 124.774C730.035 124.982 729.931 125.259 729.931 125.605V132.773C729.931 133.119 730.035 133.431 730.243 133.708C730.52 133.916 730.831 134.02 731.178 134.02H763.172C765.873 134.02 768.297 134.677 770.444 135.993C772.59 137.309 774.322 139.04 775.637 141.187C776.953 143.334 777.611 145.723 777.611 148.355V156.665C777.611 159.296 776.953 161.686 775.637 163.832C774.322 165.979 772.59 167.711 770.444 169.026C768.297 170.342 765.873 171 763.172 171H730.658ZM879.745 171L857.203 144.096H875.174L894.703 167.157V171H879.745ZM820.119 171V96.3119H880.368C883 96.3119 885.424 96.9698 887.64 98.2856C889.856 99.6013 891.622 101.367 892.937 103.583C894.253 105.73 894.911 108.119 894.911 110.751V130.903C894.911 133.535 894.253 135.959 892.937 138.175C891.622 140.391 889.856 142.157 887.64 143.472C885.424 144.719 883 145.342 880.368 145.342L833.831 145.446V171H820.119ZM835.077 131.526H879.745C880.091 131.526 880.403 131.423 880.68 131.215C880.957 131.007 881.095 130.73 881.095 130.384V111.27C881.095 110.924 880.957 110.647 880.68 110.439C880.403 110.162 880.091 110.024 879.745 110.024H835.077C834.731 110.024 834.42 110.162 834.143 110.439C833.935 110.647 833.831 110.924 833.831 111.27V130.384C833.831 130.73 833.935 131.007 834.143 131.215C834.42 131.423 834.731 131.526 835.077 131.526ZM919.862 171C917.23 171 914.807 170.342 912.591 169.026C910.444 167.711 908.712 165.979 907.397 163.832C906.15 161.686 905.527 159.296 905.527 156.665V110.751H919.135V156.145C919.135 156.492 919.239 156.803 919.446 157.08C919.723 157.288 920.035 157.392 920.381 157.392H951.856C952.203 157.392 952.48 157.288 952.687 157.08C952.964 156.803 953.103 156.492 953.103 156.145V110.751H966.711V156.665C966.711 159.296 966.053 161.686 964.737 163.832C963.491 165.979 961.794 167.711 959.647 169.026C957.5 170.342 955.077 171 952.376 171H919.862ZM989.44 171C986.808 171 984.419 170.342 982.272 169.026C980.125 167.711 978.394 165.979 977.078 163.832C975.763 161.686 975.105 159.296 975.105 156.665V154.38H988.713V156.145C988.713 156.492 988.817 156.803 989.024 157.08C989.301 157.288 989.613 157.392 989.959 157.392H1021.43C1021.78 157.392 1022.06 157.288 1022.27 157.08C1022.54 156.803 1022.68 156.492 1022.68 156.145V148.978C1022.68 148.632 1022.54 148.355 1022.27 148.147C1022.06 147.87 1021.78 147.731 1021.43 147.731H989.44C986.808 147.731 984.419 147.073 982.272 145.758C980.125 144.442 978.394 142.711 977.078 140.564C975.763 138.417 975.105 136.028 975.105 133.396V125.086C975.105 122.454 975.763 120.065 977.078 117.918C978.394 115.772 980.125 114.04 982.272 112.725C984.419 111.409 986.808 110.751 989.44 110.751H1021.95C1024.65 110.751 1027.08 111.409 1029.22 112.725C1031.37 114.04 1033.1 115.772 1034.42 117.918C1035.73 120.065 1036.39 122.454 1036.39 125.086V127.371H1022.68V125.605C1022.68 125.259 1022.54 124.982 1022.27 124.774C1022.06 124.497 1021.78 124.359 1021.43 124.359H989.959C989.613 124.359 989.301 124.497 989.024 124.774C988.817 124.982 988.713 125.259 988.713 125.605V132.773C988.713 133.119 988.817 133.431 989.024 133.708C989.301 133.916 989.613 134.02 989.959 134.02H1021.95C1024.65 134.02 1027.08 134.677 1029.22 135.993C1031.37 137.309 1033.1 139.04 1034.42 141.187C1035.73 143.334 1036.39 145.723 1036.39 148.355V156.665C1036.39 159.296 1035.73 161.686 1034.42 163.832C1033.1 165.979 1031.37 167.711 1029.22 169.026C1027.08 170.342 1024.65 171 1021.95 171H989.44ZM1061.17 171C1058.54 171 1056.15 170.342 1054 169.026C1051.86 167.711 1050.13 165.979 1048.81 163.832C1047.5 161.686 1046.84 159.296 1046.84 156.665V92.2606H1060.45V110.751H1083.92V124.359H1060.45V156.145C1060.45 156.492 1060.55 156.803 1060.76 157.08C1061.03 157.288 1061.35 157.392 1061.69 157.392H1083.92V171H1061.17Z" fill="white"/>
<defs>
<linearGradient id="paint0_linear_16462_7323" x1="0" y1="133" x2="1270" y2="133" gradientUnits="userSpaceOnUse">
<stop stop-color="#DC0202"/>
<stop offset="1" stop-color="#B40606"/>
</linearGradient>
</defs>
</svg>
